HIERARCHY
ROOT hip
{
	OFFSET 0.000000 0.000000 0.000000 
	CHANNELS 6 Xposition Yposition Zposition Xrotation Zrotation Yrotation
	JOINT abdomen
	{
		OFFSET 0.000000 3.402643 0.000000 
		CHANNELS 3 Xrotation Zrotation Yrotation
		JOINT chest
		{
			OFFSET 0.000000 8.438565 -0.680529 
			CHANNELS 3 Xrotation Zrotation Yrotation
			JOINT neck
			{
				OFFSET 0.000000 10.207942 -0.272212 
				CHANNELS 3 Xrotation Zrotation Yrotation
				JOINT head
				{
					OFFSET 0.000000 3.130431 0.000000 
					CHANNELS 3 Xrotation Zrotation Yrotation
					End Site
					{
						OFFSET 0.000000 3.130435 0.000000 
					}
				}
			}
			JOINT lCollar
			{
				OFFSET 3.470700 6.669187 -0.816635 
				CHANNELS 3 Yrotation Zrotation Xrotation
				JOINT lShldr
				{
					OFFSET 3.198488 0.000000 0.000000 
					CHANNELS 3 Zrotation Yrotation Xrotation
					JOINT lForeArm
					{
						OFFSET 10.139888 0.000000 0.000000 
						CHANNELS 3 Yrotation Zrotation Xrotation
						JOINT lHand
						{
							OFFSET 8.370511 0.000000 0.000000 
							CHANNELS 3 Zrotation Yrotation Xrotation
							End Site
							{
								OFFSET 4.083176 0.000000 0.000000 
							}
						}
					}
				}
			}
			JOINT rCollar
			{
				OFFSET -3.470700 6.669187 -0.816635 
				CHANNELS 3 Yrotation Zrotation Xrotation
				JOINT rShldr
				{
					OFFSET -3.198488 0.000000 0.000000 
					CHANNELS 3 Zrotation Yrotation Xrotation
					JOINT rForeArm
					{
						OFFSET -10.139888 0.000000 0.000000 
						CHANNELS 3 Yrotation Zrotation Xrotation
						JOINT rHand
						{
							OFFSET -8.370511 0.000000 0.000000 
							CHANNELS 3 Zrotation Yrotation Xrotation
							End Site
							{
								OFFSET -4.083176 0.000000 0.000000 
							}
						}
					}
				}
			}
		}
	}
	JOINT lThigh
	{
		OFFSET 5.308129 -1.633274 1.361059 
		CHANNELS 3 Xrotation Zrotation Yrotation
		JOINT lShin
		{
			OFFSET -2.041588 -20.007561 0.000000 
			CHANNELS 3 Xrotation Zrotation Yrotation
			JOINT lFoot
			{
				OFFSET 0.000000 -19.190928 -1.224953 
				CHANNELS 3 Xrotation Yrotation Zrotation
				End Site
				{
					OFFSET 0.000000 -2.449906 4.627600 
				}
			}
		}
	}
	JOINT rThigh
	{
		OFFSET -5.308129 -1.633274 1.361059 
		CHANNELS 3 Xrotation Zrotation Yrotation
		JOINT rShin
		{
			OFFSET 2.041588 -20.007561 0.000000 
			CHANNELS 3 Xrotation Zrotation Yrotation
			JOINT rFoot
			{
				OFFSET 0.000000 -19.190928 -1.224953 
				CHANNELS 3 Xrotation Yrotation Zrotation
				End Site
				{
					OFFSET 0.000000 -2.449906 4.627600 
				}
			}
		}
	}
}
MOTION
Frames: 16
Frame Time: 0.024000
-35.411373 26.997625 73.113579 -33.313007 27.646355 -48.539993 146.007309 -23.271959 -70.246559 -20.839844 0.000000 0.000000 -78.002777 18.814402 -17.931690 -2.520886 -1.254971 0.218336 -4.754609 -0.109180 -0.002653 -48.528236 -17.847679 21.916735 -60.594296 -50.751450 33.649799 -19.572920 12.404252 11.450595 4.754609 0.109180 -0.002671 71.376083 17.568989 -13.180596 77.273003 -11.269218 16.333277 11.803583 18.405907 30.912367 84.715378 41.108963 115.498146 91.878662 -18.196985 -29.328262 44.967213 -29.333321 19.335865 -54.865814 -132.040497 -50.661346 -2.886410 3.770028 -42.040321 349.443939 -185.204834 -28.234476 
-35.072262 27.791117 73.930946 -29.077644 27.101446 -48.666496 140.102768 -26.106653 -67.546448 -20.839844 0.000000 0.000000 -75.929710 19.129929 -13.588792 -2.520886 -1.254971 0.218336 -4.754609 -0.109180 -0.002653 -36.636013 -24.809994 14.561782 -98.659683 -50.216652 5.616704 -25.109367 13.828895 12.130311 4.754609 0.109180 -0.002671 71.599442 20.677469 -12.518689 74.034004 -11.936069 17.356401 12.150900 19.112694 33.847103 84.089874 39.478638 113.683205 91.522331 -20.824472 -29.214891 44.042179 -29.923595 17.214808 -60.254322 -127.410065 -40.105339 -3.992968 5.726669 29.815310 -80.846146 111.465408 55.066044 
-34.769665 28.596302 74.912285 -23.791874 26.405823 -48.465179 133.237320 -28.832161 -63.525555 -20.839844 0.000000 0.000000 -74.314926 19.336578 -9.443229 -2.520886 -1.254971 0.218336 -4.754609 -0.109180 -0.002653 -20.286552 -31.540956 0.382771 -118.364334 -37.772896 -10.596358 -29.401915 12.145176 6.294992 4.754609 0.109180 -0.002671 71.176476 23.407581 -12.286828 70.720673 -12.554182 18.819187 12.714957 20.659321 37.803078 83.357544 38.071873 112.132050 91.163521 -23.704937 -29.029797 42.692135 -30.372129 15.346463 -68.967354 -122.185455 -26.025417 -5.271473 4.783105 25.985865 -91.070877 120.651237 -301.105377 
-34.565578 29.410120 76.160164 -17.529346 25.450525 -48.022800 125.482910 -31.417355 -58.386356 -20.839844 0.000000 0.000000 -73.257622 19.569504 -5.760549 -2.520886 -1.254971 0.218336 -4.754609 -0.109180 -0.002653 0.993339 -34.623333 -19.259422 -118.161224 -25.765051 -14.055248 -29.041571 6.085165 -4.171129 4.754609 0.109180 -0.002671 70.994049 25.891516 -11.987618 68.328407 -13.079582 19.716364 13.488151 21.998976 40.642090 82.486519 36.737812 110.647774 90.236031 -26.928310 -28.666580 40.706928 -31.167311 12.772672 -80.765846 -118.013428 -9.657483 -0.622772 0.880796 -54.677689 148.454056 16.229605 137.340012 
-34.460003 30.252874 77.802010 -9.955208 24.204556 -47.337070 116.708618 -33.774841 -52.002518 -20.839844 0.000000 0.000000 -72.760864 19.941782 -2.571964 -2.520886 -1.254971 0.218336 -4.754609 -0.109180 -0.002653 21.458813 -32.313446 -36.817474 -104.473404 -18.027361 -12.913067 -24.825476 -0.959800 -12.966944 4.754609 0.109180 -0.002671 71.233719 28.244699 -11.530428 66.789589 -13.620481 20.345295 14.566432 23.054331 42.921360 81.328812 35.244755 108.786827 88.376320 -30.839842 -28.002596 37.021961 -33.056301 7.984720 -96.365601 -116.530197 9.992209 -1.415213 5.430492 -131.868576 113.994324 -35.552231 77.719551 
-34.457455 31.078871 79.744377 -1.480622 22.571342 -46.640327 107.343803 -35.690823 -44.586132 -20.839844 0.000000 0.000000 -72.668465 20.389706 0.128870 -2.520886 -1.254971 0.218336 -4.754609 -0.109180 -0.002653 37.057056 -28.135935 -47.957661 -84.240158 -13.367987 -9.998650 -19.324587 -5.269473 -16.472639 4.754609 0.109180 -0.002671 71.532166 30.391834 -11.017581 65.428596 -14.071659 21.382158 15.387060 23.718887 45.602303 79.742691 33.729343 106.496033 85.393753 -35.227314 -26.548063 30.778328 -35.273849 1.028894 -106.776421 -118.936966 23.179880 4.604322 14.551040 -125.492073 110.763168 -27.370762 77.945541 
-34.556454 31.852564 81.760399 6.766309 20.920771 -46.040405 98.286880 -36.450794 -36.893707 -20.839844 0.000000 0.000000 -72.587448 20.805729 2.501158 -2.520886 -1.254971 0.218336 -4.754609 -0.109180 -0.002653 48.605656 -25.714460 -55.453636 -59.759243 -8.817537 -4.903063 -15.031170 -5.655799 -13.916947 4.754609 0.109180 -0.002671 72.367035 32.237434 -10.312251 64.965210 -14.611892 22.265333 16.928602 23.427679 47.798691 77.363853 32.451611 103.602142 81.552505 -39.685432 -23.844280 22.818382 -36.173599 -5.390873 63.415596 -55.867680 -143.298813 6.912630 26.669331 -128.627121 105.150856 -24.465141 77.429474 
-34.773220 32.556213 83.754036 15.051334 19.052099 -45.352184 90.861748 -35.275799 -31.051170 -20.839844 0.000000 0.000000 -73.899269 22.805170 4.590396 -2.520886 -1.254971 0.218336 -4.754609 -0.109180 -0.002653 58.773438 -22.863762 -58.810211 -34.998158 -5.301876 1.643520 -13.158417 -3.641818 -11.572231 4.754609 0.109180 -0.002671 73.177887 35.312553 -8.376790 64.818069 -14.074302 23.120625 16.436066 22.815880 48.515034 74.763908 31.802105 101.629799 76.968819 -43.683651 -19.802055 14.752010 -35.581596 -9.940459 54.862617 -49.514381 -130.238754 7.059678 38.142715 -134.812607 101.793877 -22.171036 81.552925 
-35.124554 33.146652 85.704048 21.821949 17.518803 -44.922745 85.693169 -32.252296 -27.477100 -20.839844 0.000000 0.000000 -75.545662 25.504782 7.060887 -2.520886 -1.254971 0.218336 -4.754609 -0.109180 -0.002653 66.222870 -19.286654 -57.056633 -13.977194 -4.686556 7.148183 -14.036737 -1.283351 -15.087087 4.754609 0.109180 -0.002671 74.217102 39.502136 -5.674444 63.977543 -13.260825 24.118858 16.230566 23.216337 49.804310 71.402687 31.324863 98.734650 70.250984 -46.588364 -13.799192 7.181007 -34.317726 -14.492818 50.014263 -43.465244 -120.711296 6.226523 48.399639 -140.974625 99.899887 -19.486429 88.255791 
-35.633221 33.613716 87.759636 26.776030 16.539286 -44.676624 80.784721 -28.841307 -22.544760 -20.839844 0.000000 0.000000 -75.305138 25.868437 10.197430 -2.520886 -1.254971 0.218336 -4.754609 -0.109180 -0.002653 69.579277 -19.913147 -57.259232 1.033178 -6.389376 9.871044 -16.980185 0.843398 -19.044027 4.754609 0.109180 -0.002671 73.756378 40.944447 -5.224052 62.812088 -12.895312 24.864201 18.065458 25.212084 51.916634 66.813583 30.423885 93.552620 59.840065 -47.781540 -5.018180 0.869354 -33.103069 -19.402269 48.532681 -38.617027 -114.921402 5.684900 57.620922 -145.328430 98.343109 -18.111864 94.842339 
-36.321148 33.958424 90.029472 30.442354 15.975356 -44.677483 76.601631 -25.908510 -16.259239 -20.839844 0.000000 0.000000 -74.095894 23.753315 12.978486 -2.520886 -1.254971 0.218336 -4.754609 -0.109180 -0.002653 65.546822 -22.021393 -56.518429 -3.436403 -7.396683 8.115019 -19.393440 2.427341 -20.910345 4.754609 0.109180 -0.002671 70.556046 39.183659 -7.597674 62.103603 -12.556495 25.627438 19.550985 27.900064 53.997616 61.176685 28.463669 86.179955 45.382576 -46.224419 6.759328 -4.004122 -31.841501 -25.714529 49.159554 -34.709209 -111.586021 5.713075 66.552513 -147.723114 96.788933 -19.844366 100.596252 
-37.179638 34.192974 92.415047 33.341228 15.714629 -44.825775 73.845612 -23.409657 -10.591101 -20.839844 0.000000 0.000000 -73.047569 21.222101 14.977425 -2.520886 -1.254971 0.218336 -4.754609 -0.109180 -0.002653 63.885185 -27.498108 -59.045990 -2.343896 -7.142690 7.801796 -19.450878 4.008545 -22.741001 4.754609 0.109180 -0.002671 66.995506 36.889118 -10.178034 61.390854 -12.184208 26.626877 19.728216 29.661173 55.893723 54.851379 25.031986 77.307083 28.947117 -40.415630 19.863962 -6.704115 -30.618139 -32.514179 50.845215 -31.785801 -109.733482 9.517969 75.667450 -144.883850 95.781731 -24.643097 105.335785 
-38.100063 33.997005 94.173149 36.922535 15.256039 -45.084499 72.119354 -21.430790 -6.750154 -20.839844 0.000000 0.000000 -73.054550 20.726894 16.466482 -2.520886 -1.254971 0.218336 -4.754609 -0.109180 -0.002653 60.496147 -29.622089 -58.412010 -1.221067 -5.527944 6.093269 -17.108688 6.843214 -24.563074 4.754609 0.109180 -0.002671 65.165398 36.093559 -10.657118 61.061073 -11.099187 27.654015 18.495428 29.862444 56.305092 49.850220 21.722282 70.448425 15.510240 -31.572245 29.254360 -7.268876 -30.048109 -38.937004 51.425045 -27.240074 -109.142654 -73.045387 90.456108 33.345615 117.486641 3.645372 9.412236 
-38.987469 33.663467 95.918556 42.140694 13.786782 -44.587223 70.199203 -18.282345 -2.967117 -20.839844 0.000000 0.000000 -73.809410 22.085997 17.822351 -2.520886 -1.254971 0.218336 -4.754609 -0.109180 -0.002653 56.657040 -28.925968 -55.893894 -0.251389 -3.768647 3.480544 -13.804929 10.292511 -26.547522 4.754609 0.109180 -0.002671 65.055954 35.841972 -9.318143 62.117737 -9.231995 28.754335 17.929733 28.207951 55.630653 42.236332 19.678638 65.277763 7.849897 -14.411036 34.031776 -8.959196 -30.292866 -49.621014 48.816887 -19.741018 -98.967575 31.594515 102.163391 -129.368011 77.962898 -34.419590 98.104324 
-39.713467 33.079121 97.564461 48.254250 11.493832 -43.349022 67.743874 -13.329559 2.165595 -20.839844 0.000000 0.000000 -74.491676 23.350071 19.332062 -2.520886 -1.254971 0.218336 -4.754609 -0.109180 -0.002653 53.688873 -28.524906 -54.380844 0.335575 -2.422671 1.022916 -10.976520 12.748489 -28.050341 4.754609 0.109180 -0.002671 64.758415 35.146702 -8.043746 62.840778 -7.130171 30.015755 17.164749 26.563633 55.074291 39.615784 16.682688 61.864140 -4.960992 -1.886849 36.509823 -8.277201 -32.971840 -54.556820 44.784603 -14.151266 -86.298935 -141.422424 62.712814 50.983582 92.928024 -32.093327 94.895897 
-40.267849 31.888613 98.299583 53.520935 9.635617 -42.448914 65.621979 -9.092121 7.304223 -20.839844 0.000000 0.000000 -74.983170 23.236467 20.705254 -2.520886 -1.254971 0.218336 -4.754609 -0.109180 -0.002653 50.301666 -28.887100 -53.323975 0.829973 -0.987040 -1.190086 -9.350588 13.975684 -28.817787 4.754609 0.109180 -0.002671 63.183578 34.118607 -7.701086 61.879177 -5.115614 31.262791 14.440434 27.112469 54.864166 41.100842 21.584438 66.563065 -4.397155 -3.135613 29.144075 -17.638302 -34.896576 -57.522728 38.424061 -9.438506 -78.008202 -1.766719 121.242302 -86.098961 -59.667336 -137.221710 16.558851 
